<svg xmlns="http://www.w3.org/2000/svg" xmlns:xlink="http://www.w3.org/1999/xlink" viewBox="0 0 750 501"><defs><style>.cls-1{fill:none;}.cls-2{fill:url(#linear-gradient);}.cls-3{clip-path:url(#clip-path);}.cls-4{fill:url(#linear-gradient-2);}.cls-5{fill:url(#linear-gradient-3);}.cls-6{fill:url(#linear-gradient-4);}.cls-7{fill:url(#linear-gradient-5);}</style><linearGradient id="linear-gradient" x1="375" y1="-40" x2="375" y2="577.19" gradientUnits="userSpaceOnUse"><stop offset="0" stop-color="#e94546"/><stop offset="0.16" stop-color="#ce2241"/><stop offset="0.33" stop-color="#b5023c"/><stop offset="0.36" stop-color="#ad023c"/><stop offset="0.57" stop-color="#750240"/><stop offset="0.76" stop-color="#4c0342"/><stop offset="0.91" stop-color="#330343"/><stop offset="1" stop-color="#2a0344"/></linearGradient><clipPath id="clip-path"><rect class="cls-1" y="1" width="750" height="500"/></clipPath><linearGradient id="linear-gradient-2" x1="360.74" y1="270.48" x2="429.74" y2="616.48" gradientUnits="userSpaceOnUse"><stop offset="0" stop-color="#e94546"/><stop offset="0.06" stop-color="#e33e45" stop-opacity="0.88"/><stop offset="0.2" stop-color="#d93043" stop-opacity="0.65"/><stop offset="0.34" stop-color="#cf2441" stop-opacity="0.45"/><stop offset="0.48" stop-color="#c81a40" stop-opacity="0.29"/><stop offset="0.61" stop-color="#c2123e" stop-opacity="0.16"/><stop offset="0.74" stop-color="#bd0c3e" stop-opacity="0.07"/><stop offset="0.88" stop-color="#bb093d" stop-opacity="0.02"/><stop offset="1" stop-color="#ba083d" stop-opacity="0"/></linearGradient><linearGradient id="linear-gradient-3" x1="527.46" y1="39.49" x2="640.74" y2="607.53" xlink:href="#linear-gradient-2"/><linearGradient id="linear-gradient-4" x1="339.45" y1="53.94" x2="440.8" y2="595.81" gradientUnits="userSpaceOnUse"><stop offset="0" stop-color="#e94546"/><stop offset="0.16" stop-color="#ce2241"/><stop offset="0.33" stop-color="#b5023c"/><stop offset="0.47" stop-color="#8e023e" stop-opacity="0.72"/><stop offset="0.65" stop-color="#640341" stop-opacity="0.41"/><stop offset="0.8" stop-color="#440342" stop-opacity="0.19"/><stop offset="0.93" stop-color="#310344" stop-opacity="0.05"/><stop offset="1" stop-color="#2a0344" stop-opacity="0"/></linearGradient><linearGradient id="linear-gradient-5" x1="310.21" y1="275.73" x2="264.95" y2="-50.4" xlink:href="#linear-gradient-2"/></defs><title>pokedex-bg</title><g id="Layer_2" data-name="Layer 2"><g id="BACKGROUND_2" data-name="BACKGROUND 2"><rect class="cls-2" y="1" width="750" height="500"/><g class="cls-3"><path class="cls-4" d="M750,183s-84.47-83-151.47,57S446,499.21,326.53,398C103.53,209,0,360,0,360V501H750Z"/><path class="cls-5" d="M336.53,0s-116,169,139,274,216,227,216,227H750V1Z"/><path class="cls-6" d="M0,60s151.2-79.67,241.2,71.33,267.33,123.34,356,27.24C693.92,53.75,750,109,750,109V366S620.33,209,456.53,336C229.53,512,0,379,0,379Z"/><path class="cls-7" d="M588.55,1s64.25,218.3-228.3,179.7S0,329.79,0,329.79V1Z"/></g></g></g></svg>